<svg version="1.1" xmlns="http://www.w3.org/2000/svg" xmlns:xlink="http://www.w3.org/1999/xlink" width="674.18994140625" height="412"><defs/><g><text fill="#eeeeee" stroke="none" font-family="Arial" font-size="24px" font-style="normal" font-weight="normal" text-decoration="none" x="0" y="0">UNREGISTERED</text><text fill="#eeeeee" stroke="none" font-family="Arial" font-size="24px" font-style="normal" font-weight="normal" text-decoration="none" x="0" y="30">UNREGISTERED</text><text fill="#eeeeee" stroke="none" font-family="Arial" font-size="24px" font-style="normal" font-weight="normal" text-decoration="none" x="0" y="60">UNREGISTERED</text><text fill="#eeeeee" stroke="none" font-family="Arial" font-size="24px" font-style="normal" font-weight="normal" text-decoration="none" x="0" y="90">UNREGISTERED</text><text fill="#eeeeee" stroke="none" font-family="Arial" font-size="24px" font-style="normal" font-weight="normal" text-decoration="none" x="0" y="120">UNREGISTERED</text><text fill="#eeeeee" stroke="none" font-family="Arial" font-size="24px" font-style="normal" font-weight="normal" text-decoration="none" x="0" y="150">UNREGISTERED</text><text fill="#eeeeee" stroke="none" font-family="Arial" font-size="24px" font-style="normal" font-weight="normal" text-decoration="none" x="0" y="180">UNREGISTERED</text><text fill="#eeeeee" stroke="none" font-family="Arial" font-size="24px" font-style="normal" font-weight="normal" text-decoration="none" x="0" y="210">UNREGISTERED</text><text fill="#eeeeee" stroke="none" font-family="Arial" font-size="24px" font-style="normal" font-weight="normal" text-decoration="none" x="0" y="240">UNREGISTERED</text><text fill="#eeeeee" stroke="none" font-family="Arial" font-size="24px" font-style="normal" font-weight="normal" text-decoration="none" x="0" y="270">UNREGISTERED</text><text fill="#eeeeee" stroke="none" font-family="Arial" font-size="24px" font-style="normal" font-weight="normal" text-decoration="none" x="0" y="300">UNREGISTERED</text><text fill="#eeeeee" stroke="none" font-family="Arial" font-size="24px" font-style="normal" font-weight="normal" text-decoration="none" x="0" y="330">UNREGISTERED</text><text fill="#eeeeee" stroke="none" font-family="Arial" font-size="24px" font-style="normal" font-weight="normal" text-decoration="none" x="0" y="360">UNREGISTERED</text><text fill="#eeeeee" stroke="none" font-family="Arial" font-size="24px" font-style="normal" font-weight="normal" text-decoration="none" x="0" y="390">UNREGISTERED</text><text fill="#eeeeee" stroke="none" font-family="Arial" font-size="24px" font-style="normal" font-weight="normal" text-decoration="none" x="200" y="0">UNREGISTERED</text><text fill="#eeeeee" stroke="none" font-family="Arial" font-size="24px" font-style="normal" font-weight="normal" text-decoration="none" x="200" y="30">UNREGISTERED</text><text fill="#eeeeee" stroke="none" font-family="Arial" font-size="24px" font-style="normal" font-weight="normal" text-decoration="none" x="200" y="60">UNREGISTERED</text><text fill="#eeeeee" stroke="none" font-family="Arial" font-size="24px" font-style="normal" font-weight="normal" text-decoration="none" x="200" y="90">UNREGISTERED</text><text fill="#eeeeee" stroke="none" font-family="Arial" font-size="24px" font-style="normal" font-weight="normal" text-decoration="none" x="200" y="120">UNREGISTERED</text><text fill="#eeeeee" stroke="none" font-family="Arial" font-size="24px" font-style="normal" font-weight="normal" text-decoration="none" x="200" y="150">UNREGISTERED</text><text fill="#eeeeee" stroke="none" font-family="Arial" font-size="24px" font-style="normal" font-weight="normal" text-decoration="none" x="200" y="180">UNREGISTERED</text><text fill="#eeeeee" stroke="none" font-family="Arial" font-size="24px" font-style="normal" font-weight="normal" text-decoration="none" x="200" y="210">UNREGISTERED</text><text fill="#eeeeee" stroke="none" font-family="Arial" font-size="24px" font-style="normal" font-weight="normal" text-decoration="none" x="200" y="240">UNREGISTERED</text><text fill="#eeeeee" stroke="none" font-family="Arial" font-size="24px" font-style="normal" font-weight="normal" text-decoration="none" x="200" y="270">UNREGISTERED</text><text fill="#eeeeee" stroke="none" font-family="Arial" font-size="24px" font-style="normal" font-weight="normal" text-decoration="none" x="200" y="300">UNREGISTERED</text><text fill="#eeeeee" stroke="none" font-family="Arial" font-size="24px" font-style="normal" font-weight="normal" text-decoration="none" x="200" y="330">UNREGISTERED</text><text fill="#eeeeee" stroke="none" font-family="Arial" font-size="24px" font-style="normal" font-weight="normal" text-decoration="none" x="200" y="360">UNREGISTERED</text><text fill="#eeeeee" stroke="none" font-family="Arial" font-size="24px" font-style="normal" font-weight="normal" text-decoration="none" x="200" y="390">UNREGISTERED</text><text fill="#eeeeee" stroke="none" font-family="Arial" font-size="24px" font-style="normal" font-weight="normal" text-decoration="none" x="400" y="0">UNREGISTERED</text><text fill="#eeeeee" stroke="none" font-family="Arial" font-size="24px" font-style="normal" font-weight="normal" text-decoration="none" x="400" y="30">UNREGISTERED</text><text fill="#eeeeee" stroke="none" font-family="Arial" font-size="24px" font-style="normal" font-weight="normal" text-decoration="none" x="400" y="60">UNREGISTERED</text><text fill="#eeeeee" stroke="none" font-family="Arial" font-size="24px" font-style="normal" font-weight="normal" text-decoration="none" x="400" y="90">UNREGISTERED</text><text fill="#eeeeee" stroke="none" font-family="Arial" font-size="24px" font-style="normal" font-weight="normal" text-decoration="none" x="400" y="120">UNREGISTERED</text><text fill="#eeeeee" stroke="none" font-family="Arial" font-size="24px" font-style="normal" font-weight="normal" text-decoration="none" x="400" y="150">UNREGISTERED</text><text fill="#eeeeee" stroke="none" font-family="Arial" font-size="24px" font-style="normal" font-weight="normal" text-decoration="none" x="400" y="180">UNREGISTERED</text><text fill="#eeeeee" stroke="none" font-family="Arial" font-size="24px" font-style="normal" font-weight="normal" text-decoration="none" x="400" y="210">UNREGISTERED</text><text fill="#eeeeee" stroke="none" font-family="Arial" font-size="24px" font-style="normal" font-weight="normal" text-decoration="none" x="400" y="240">UNREGISTERED</text><text fill="#eeeeee" stroke="none" font-family="Arial" font-size="24px" font-style="normal" font-weight="normal" text-decoration="none" x="400" y="270">UNREGISTERED</text><text fill="#eeeeee" stroke="none" font-family="Arial" font-size="24px" font-style="normal" font-weight="normal" text-decoration="none" x="400" y="300">UNREGISTERED</text><text fill="#eeeeee" stroke="none" font-family="Arial" font-size="24px" font-style="normal" font-weight="normal" text-decoration="none" x="400" y="330">UNREGISTERED</text><text fill="#eeeeee" stroke="none" font-family="Arial" font-size="24px" font-style="normal" font-weight="normal" text-decoration="none" x="400" y="360">UNREGISTERED</text><text fill="#eeeeee" stroke="none" font-family="Arial" font-size="24px" font-style="normal" font-weight="normal" text-decoration="none" x="400" y="390">UNREGISTERED</text><text fill="#eeeeee" stroke="none" font-family="Arial" font-size="24px" font-style="normal" font-weight="normal" text-decoration="none" x="600" y="0">UNREGISTERED</text><text fill="#eeeeee" stroke="none" font-family="Arial" font-size="24px" font-style="normal" font-weight="normal" text-decoration="none" x="600" y="30">UNREGISTERED</text><text fill="#eeeeee" stroke="none" font-family="Arial" font-size="24px" font-style="normal" font-weight="normal" text-decoration="none" x="600" y="60">UNREGISTERED</text><text fill="#eeeeee" stroke="none" font-family="Arial" font-size="24px" font-style="normal" font-weight="normal" text-decoration="none" x="600" y="90">UNREGISTERED</text><text fill="#eeeeee" stroke="none" font-family="Arial" font-size="24px" font-style="normal" font-weight="normal" text-decoration="none" x="600" y="120">UNREGISTERED</text><text fill="#eeeeee" stroke="none" font-family="Arial" font-size="24px" font-style="normal" font-weight="normal" text-decoration="none" x="600" y="150">UNREGISTERED</text><text fill="#eeeeee" stroke="none" font-family="Arial" font-size="24px" font-style="normal" font-weight="normal" text-decoration="none" x="600" y="180">UNREGISTERED</text><text fill="#eeeeee" stroke="none" font-family="Arial" font-size="24px" font-style="normal" font-weight="normal" text-decoration="none" x="600" y="210">UNREGISTERED</text><text fill="#eeeeee" stroke="none" font-family="Arial" font-size="24px" font-style="normal" font-weight="normal" text-decoration="none" x="600" y="240">UNREGISTERED</text><text fill="#eeeeee" stroke="none" font-family="Arial" font-size="24px" font-style="normal" font-weight="normal" text-decoration="none" x="600" y="270">UNREGISTERED</text><text fill="#eeeeee" stroke="none" font-family="Arial" font-size="24px" font-style="normal" font-weight="normal" text-decoration="none" x="600" y="300">UNREGISTERED</text><text fill="#eeeeee" stroke="none" font-family="Arial" font-size="24px" font-style="normal" font-weight="normal" text-decoration="none" x="600" y="330">UNREGISTERED</text><text fill="#eeeeee" stroke="none" font-family="Arial" font-size="24px" font-style="normal" font-weight="normal" text-decoration="none" x="600" y="360">UNREGISTERED</text><text fill="#eeeeee" stroke="none" font-family="Arial" font-size="24px" font-style="normal" font-weight="normal" text-decoration="none" x="600" y="390">UNREGISTERED</text><g transform="translate(-86,-182) scale(1,1)"><rect fill="#ffffff" stroke="none" x="96" y="288" width="82.32421875" height="32"/></g><g transform="translate(-86,-182) scale(1,1)"><path fill="none" stroke="#000000" d="M 96 288 L 178.32421875 288 L 178.32421875 320 L 96 320 L 96 288 Z Z" stroke-miterlimit="10"/></g><g transform="translate(-86,-182) scale(1,1)"><g><path fill="none" stroke="none"/><text fill="#000000" stroke="none" font-family="Arial" font-size="13px" font-style="normal" font-weight="normal" text-decoration="none" x="105.5" y="308.7099609375">WorkForce</text></g></g><g transform="translate(-86,-182) scale(1,1)"><rect fill="#ffffff" stroke="none" x="488" y="280" width="102.0908203125" height="58"/></g><g transform="translate(-86,-182) scale(1,1)"><path fill="none" stroke="#000000" d="M 488 280 L 590.0908203125 280 L 590.0908203125 338 L 488 338 L 488 280 Z Z" stroke-miterlimit="10"/></g><g transform="translate(-86,-182) scale(1,1)"><g><path fill="none" stroke="none"/><text fill="#000000" stroke="none" font-family="Arial" font-size="13px" font-style="normal" font-weight="normal" text-decoration="none" x="497.5" y="300.7099609375">Intermediatary</text><text fill="#000000" stroke="none" font-family="Arial" font-size="13px" font-style="normal" font-weight="normal" text-decoration="none" x="524.963134765625" y="313.7099609375">Hirer</text></g></g><g transform="translate(-86,-182) scale(1,1)"><path fill="none" stroke="#000000" d="M 178 309 L 488 309" stroke-miterlimit="10"/></g><g transform="translate(-86,-182) scale(1,1)"><path fill="#000000" stroke="none" d="M 477.83732514237585 313.209517756016 L 488 309 L 477.83732514237585 304.790482243984"/></g><g transform="translate(-86,-182) scale(1,1)"><path fill="none" stroke="#000000" d="M 477.83732514237585 313.209517756016 L 488 309 L 477.83732514237585 304.790482243984 L 477.83732514237585 313.209517756016" stroke-miterlimit="10"/></g><g transform="translate(-86,-182) scale(1,1)"><rect fill="#ffffff" stroke="none" x="664" y="280" width="86.18994140625" height="58"/></g><g transform="translate(-86,-182) scale(1,1)"><path fill="none" stroke="#000000" d="M 664 280 L 750.18994140625 280 L 750.18994140625 338 L 664 338 L 664 280 Z Z" stroke-miterlimit="10"/></g><g transform="translate(-86,-182) scale(1,1)"><g><path fill="none" stroke="none"/><text fill="#000000" stroke="none" font-family="Arial" font-size="13px" font-style="normal" font-weight="normal" text-decoration="none" x="674.21728515625" y="300.7099609375">Companies</text><text fill="#000000" stroke="none" font-family="Arial" font-size="13px" font-style="normal" font-weight="normal" text-decoration="none" x="696.25" y="313.7099609375">and</text><text fill="#000000" stroke="none" font-family="Arial" font-size="13px" font-style="normal" font-weight="normal" text-decoration="none" x="673.5" y="326.53857421875">Contractors</text></g></g><g transform="translate(-86,-182) scale(1,1)"><path fill="none" stroke="#000000" d="M 590 312 L 664 312" stroke-miterlimit="10"/></g><g transform="translate(-86,-182) scale(1,1)"><path fill="#000000" stroke="none" d="M 653.8373251423759 316.209517756016 L 664 312 L 653.8373251423758 307.790482243984"/></g><g transform="translate(-86,-182) scale(1,1)"><path fill="none" stroke="#000000" d="M 653.8373251423759 316.209517756016 L 664 312 L 653.8373251423758 307.790482243984 L 653.8373251423759 316.209517756016" stroke-miterlimit="10"/></g><g transform="translate(-86,-182) scale(1,1)"><path fill="#ffffff" stroke="none" d="M 384 192 L 474.3671875 192 L 484.3671875 202 L 484.3671875 267 L 384 267 L 384 192"/></g><g transform="translate(-86,-182) scale(1,1)"><path fill="none" stroke="#000000" d="M 384 192 L 474.3671875 192 L 484.3671875 202 L 484.3671875 267 L 384 267 L 384 192 L 384 192" stroke-miterlimit="10"/></g><g transform="translate(-86,-182) scale(1,1)"><path fill="none" stroke="#000000" d="M 474.3671875 192 L 474.3671875 202 L 484.3671875 202 L 474.3671875 192" stroke-miterlimit="10"/></g><g transform="translate(-86,-182) scale(1,1)"><g><path fill="none" stroke="none"/><text fill="#000000" stroke="none" font-family="Arial" font-size="13px" font-style="normal" font-weight="normal" text-decoration="none" x="389" y="206.419921875">Giving</text><text fill="#000000" stroke="none" font-family="Arial" font-size="13px" font-style="normal" font-weight="normal" text-decoration="none" x="389" y="219.419921875">Workforce a</text><text fill="#000000" stroke="none" font-family="Arial" font-size="13px" font-style="normal" font-weight="normal" text-decoration="none" x="389" y="232.419921875">Perception for</text><text fill="#000000" stroke="none" font-family="Arial" font-size="13px" font-style="normal" font-weight="normal" text-decoration="none" x="389" y="245.419921875">intermediatary</text></g></g><g transform="translate(-86,-182) scale(1,1)"><path fill="none" stroke="#000000" d="M 333 309 L 384 269" stroke-miterlimit="10" stroke-dasharray="3"/></g><g transform="translate(-86,-182) scale(1,1)"><path fill="#ffffff" stroke="#000000" d="M 520 504 L 614 504 L 614 574 C 583 552 551 590.5 520 563 L 520 504 Z" stroke-miterlimit="10"/></g><g transform="translate(-86,-182) scale(1,1)"><path fill="#ffffff" stroke="#000000" d="M 525 509 L 619 509 L 619 579 C 588 557 556 595.5 525 568 L 525 509 Z" stroke-miterlimit="10"/></g><g transform="translate(-86,-182) scale(1,1)"><path fill="#ffffff" stroke="#000000" d="M 530 514 L 624 514 L 624 584 C 593 562 561 600.5 530 573 L 530 514 Z" stroke-miterlimit="10"/></g><g transform="translate(-86,-182) scale(1,1)"><g><path fill="none" stroke="none"/><text fill="#000000" stroke="none" font-family="Arial" font-size="13px" font-style="normal" font-weight="normal" text-decoration="none" x="547.73095703125" y="534.2099609375">Screening</text><text fill="#000000" stroke="none" font-family="Arial" font-size="13px" font-style="normal" font-weight="normal" text-decoration="none" x="566.155029296875" y="547.2099609375">and</text><text fill="#000000" stroke="none" font-family="Arial" font-size="13px" font-style="normal" font-weight="normal" text-decoration="none" x="547.740478515625" y="559.971923828125">Resumes </text></g></g><g transform="translate(-86,-182) scale(1,1)"><path fill="#ffffff" stroke="#000000" d="M 352 432 C 352 427.5817216 370.3294340546875 424 392.93994140625 424 C 415.5504487578125 424 433.8798828125 427.5817216 433.8798828125 432 L 433.8798828125 487 C 433.8798828125 491.4182784 415.5504487578125 495 392.93994140625 495 C 370.3294340546875 495 352 491.4182784 352 487 L 352 432 Z" stroke-miterlimit="10"/></g><g transform="translate(-86,-182) scale(1,1)"><path fill="none" stroke="#000000" d="M 352 432 C 352 436.4182784 370.3294340546875 440 392.93994140625 440 C 415.5504487578125 440 433.8798828125 436.4182784 433.8798828125 432" stroke-miterlimit="10"/></g><g transform="translate(-86,-182) scale(1,1)"><g><path fill="none" stroke="none"/><text fill="#000000" stroke="none" font-family="Arial" font-size="13px" font-style="normal" font-weight="normal" text-decoration="none" x="368.739501953125" y="461.971923828125">Past HR</text><text fill="#000000" stroke="none" font-family="Arial" font-size="13px" font-style="normal" font-weight="normal" text-decoration="none" x="368.736328125" y="475.2099609375">Records</text></g></g><g transform="translate(-86,-182) scale(1,1)"><path fill="none" stroke="#000000" d="M 507 338 L 507 451 M 507 451 A 8 8 0 0 1 499 459 L 434 459" stroke-miterlimit="10"/></g><g transform="translate(-86,-182) scale(1,1)"><path fill="#000000" stroke="none" d="M 444.16267485762415 454.790482243984 L 434 459 L 444.16267485762415 463.209517756016"/></g><g transform="translate(-86,-182) scale(1,1)"><path fill="none" stroke="#000000" d="M 444.16267485762415 454.790482243984 L 434 459 L 444.16267485762415 463.209517756016 L 444.16267485762415 454.790482243984" stroke-miterlimit="10"/></g><g transform="translate(-86,-182) scale(1,1)"><path fill="none" stroke="#000000" d="M 392 495 L 392 511 M 392 511 A 8 8 0 0 0 400 519 L 520 519" stroke-miterlimit="10"/></g><g transform="translate(-86,-182) scale(1,1)"><path fill="#000000" stroke="none" d="M 509.83732514237585 523.209517756016 L 520 519 L 509.83732514237585 514.790482243984"/></g><g transform="translate(-86,-182) scale(1,1)"><path fill="none" stroke="#000000" d="M 509.83732514237585 523.209517756016 L 520 519 L 509.83732514237585 514.790482243984 L 509.83732514237585 523.209517756016" stroke-miterlimit="10"/></g><g transform="translate(-86,-182) scale(1,1)"><path fill="none" stroke="#000000" d="M 543 504 L 543 338" stroke-miterlimit="10"/></g><g transform="translate(-86,-182) scale(1,1)"><path fill="#000000" stroke="none" d="M 547.209517756016 348.16267485762415 L 543 338 L 538.790482243984 348.16267485762415"/></g><g transform="translate(-86,-182) scale(1,1)"><path fill="none" stroke="#000000" d="M 547.209517756016 348.16267485762415 L 543 338 L 538.790482243984 348.16267485762415 L 547.209517756016 348.16267485762415" stroke-miterlimit="10"/></g></g></svg>