<svg version="1.1" xmlns="http://www.w3.org/2000/svg" xmlns:xlink="http://www.w3.org/1999/xlink" width="535.59716796875" height="269"><defs/><g><text fill="#eeeeee" stroke="none" font-family="Arial" font-size="24px" font-style="normal" font-weight="normal" text-decoration="none" x="0" y="0">UNREGISTERED</text><text fill="#eeeeee" stroke="none" font-family="Arial" font-size="24px" font-style="normal" font-weight="normal" text-decoration="none" x="0" y="30">UNREGISTERED</text><text fill="#eeeeee" stroke="none" font-family="Arial" font-size="24px" font-style="normal" font-weight="normal" text-decoration="none" x="0" y="60">UNREGISTERED</text><text fill="#eeeeee" stroke="none" font-family="Arial" font-size="24px" font-style="normal" font-weight="normal" text-decoration="none" x="0" y="90">UNREGISTERED</text><text fill="#eeeeee" stroke="none" font-family="Arial" font-size="24px" font-style="normal" font-weight="normal" text-decoration="none" x="0" y="120">UNREGISTERED</text><text fill="#eeeeee" stroke="none" font-family="Arial" font-size="24px" font-style="normal" font-weight="normal" text-decoration="none" x="0" y="150">UNREGISTERED</text><text fill="#eeeeee" stroke="none" font-family="Arial" font-size="24px" font-style="normal" font-weight="normal" text-decoration="none" x="0" y="180">UNREGISTERED</text><text fill="#eeeeee" stroke="none" font-family="Arial" font-size="24px" font-style="normal" font-weight="normal" text-decoration="none" x="0" y="210">UNREGISTERED</text><text fill="#eeeeee" stroke="none" font-family="Arial" font-size="24px" font-style="normal" font-weight="normal" text-decoration="none" x="0" y="240">UNREGISTERED</text><text fill="#eeeeee" stroke="none" font-family="Arial" font-size="24px" font-style="normal" font-weight="normal" text-decoration="none" x="200" y="0">UNREGISTERED</text><text fill="#eeeeee" stroke="none" font-family="Arial" font-size="24px" font-style="normal" font-weight="normal" text-decoration="none" x="200" y="30">UNREGISTERED</text><text fill="#eeeeee" stroke="none" font-family="Arial" font-size="24px" font-style="normal" font-weight="normal" text-decoration="none" x="200" y="60">UNREGISTERED</text><text fill="#eeeeee" stroke="none" font-family="Arial" font-size="24px" font-style="normal" font-weight="normal" text-decoration="none" x="200" y="90">UNREGISTERED</text><text fill="#eeeeee" stroke="none" font-family="Arial" font-size="24px" font-style="normal" font-weight="normal" text-decoration="none" x="200" y="120">UNREGISTERED</text><text fill="#eeeeee" stroke="none" font-family="Arial" font-size="24px" font-style="normal" font-weight="normal" text-decoration="none" x="200" y="150">UNREGISTERED</text><text fill="#eeeeee" stroke="none" font-family="Arial" font-size="24px" font-style="normal" font-weight="normal" text-decoration="none" x="200" y="180">UNREGISTERED</text><text fill="#eeeeee" stroke="none" font-family="Arial" font-size="24px" font-style="normal" font-weight="normal" text-decoration="none" x="200" y="210">UNREGISTERED</text><text fill="#eeeeee" stroke="none" font-family="Arial" font-size="24px" font-style="normal" font-weight="normal" text-decoration="none" x="200" y="240">UNREGISTERED</text><text fill="#eeeeee" stroke="none" font-family="Arial" font-size="24px" font-style="normal" font-weight="normal" text-decoration="none" x="400" y="0">UNREGISTERED</text><text fill="#eeeeee" stroke="none" font-family="Arial" font-size="24px" font-style="normal" font-weight="normal" text-decoration="none" x="400" y="30">UNREGISTERED</text><text fill="#eeeeee" stroke="none" font-family="Arial" font-size="24px" font-style="normal" font-weight="normal" text-decoration="none" x="400" y="60">UNREGISTERED</text><text fill="#eeeeee" stroke="none" font-family="Arial" font-size="24px" font-style="normal" font-weight="normal" text-decoration="none" x="400" y="90">UNREGISTERED</text><text fill="#eeeeee" stroke="none" font-family="Arial" font-size="24px" font-style="normal" font-weight="normal" text-decoration="none" x="400" y="120">UNREGISTERED</text><text fill="#eeeeee" stroke="none" font-family="Arial" font-size="24px" font-style="normal" font-weight="normal" text-decoration="none" x="400" y="150">UNREGISTERED</text><text fill="#eeeeee" stroke="none" font-family="Arial" font-size="24px" font-style="normal" font-weight="normal" text-decoration="none" x="400" y="180">UNREGISTERED</text><text fill="#eeeeee" stroke="none" font-family="Arial" font-size="24px" font-style="normal" font-weight="normal" text-decoration="none" x="400" y="210">UNREGISTERED</text><text fill="#eeeeee" stroke="none" font-family="Arial" font-size="24px" font-style="normal" font-weight="normal" text-decoration="none" x="400" y="240">UNREGISTERED</text><g transform="translate(-258,-302) scale(1,1)"><rect fill="#ffd4d4" stroke="none" x="272" y="312" width="143.2744140625" height="32"/></g><g transform="translate(-258,-302) scale(1,1)"><path fill="none" stroke="#000000" d="M 272 312 L 415.2744140625 312 L 415.2744140625 344 L 272 344 L 272 312 Z Z" stroke-miterlimit="10"/></g><g transform="translate(-258,-302) scale(1,1)"><g><path fill="none" stroke="none"/><text fill="#000000" stroke="none" font-family="Arial" font-size="13px" font-style="normal" font-weight="normal" text-decoration="none" x="281.5" y="332.7099609375">Software Architecture</text></g></g><g transform="translate(-258,-302) scale(1,1)"><path fill="none" stroke="#000000" d="M 344 344 L 344 432" stroke-miterlimit="10"/></g><g transform="translate(-258,-302) scale(1,1)"><path fill="#000000" stroke="none" d="M 339.790482243984 421.83732514237585 L 344 432 L 348.209517756016 421.83732514237585"/></g><g transform="translate(-258,-302) scale(1,1)"><path fill="none" stroke="#000000" d="M 339.790482243984 421.83732514237585 L 344 432 L 348.209517756016 421.83732514237585 L 339.790482243984 421.83732514237585" stroke-miterlimit="10"/></g><g transform="translate(-258,-302) scale(1,1)"><path fill="#ffe9a8" stroke="none" d="M 268 496.5 L 344 432 L 420 496.5 L 344 561 L 268 496.5"/></g><g transform="translate(-258,-302) scale(1,1)"><path fill="none" stroke="#000000" d="M 268 496.5 L 344 432 L 420 496.5 L 344 561 L 268 496.5 L 268 496.5" stroke-miterlimit="10"/></g><g transform="translate(-258,-302) scale(1,1)"><g><path fill="none" stroke="none"/><text fill="#000000" stroke="none" font-family="Arial" font-size="13px" font-style="normal" font-weight="normal" text-decoration="none" x="323.043212890625" y="481.7099609375">what to</text><text fill="#000000" stroke="none" font-family="Arial" font-size="13px" font-style="normal" font-weight="normal" text-decoration="none" x="308.580078125" y="494.7099609375">develop and</text><text fill="#000000" stroke="none" font-family="Arial" font-size="13px" font-style="normal" font-weight="normal" text-decoration="none" x="323.043212890625" y="507.7099609375">what to</text><text fill="#000000" stroke="none" font-family="Arial" font-size="13px" font-style="normal" font-weight="normal" text-decoration="none" x="319.06640625" y="520.7099609375">acquire?</text></g></g><g transform="translate(-258,-302) scale(1,1)"><rect fill="#c0c0ff" stroke="none" x="688" y="480" width="95.59716796875" height="32"/></g><g transform="translate(-258,-302) scale(1,1)"><path fill="none" stroke="#000000" d="M 688 480 L 783.59716796875 480 L 783.59716796875 512 L 688 512 L 688 480 Z Z" stroke-miterlimit="10"/></g><g transform="translate(-258,-302) scale(1,1)"><g><path fill="none" stroke="none"/><text fill="#000000" stroke="none" font-family="Arial" font-size="13px" font-style="normal" font-weight="normal" text-decoration="none" x="697.5" y="500.7099609375">Development</text></g></g><g transform="translate(-258,-302) scale(1,1)"><rect fill="#e3ffc7" stroke="none" x="480" y="480" width="136" height="32"/></g><g transform="translate(-258,-302) scale(1,1)"><path fill="none" stroke="#000000" d="M 480 480 L 616 480 L 616 512 L 480 512 L 480 480 Z Z" stroke-miterlimit="10"/></g><g transform="translate(-258,-302) scale(1,1)"><g><path fill="none" stroke="none"/><text fill="#000000" stroke="none" font-family="Arial" font-size="13px" font-style="normal" font-weight="normal" text-decoration="none" x="510.07275390625" y="500.7099609375">Task Division</text></g></g><g transform="translate(-258,-302) scale(1,1)"><path fill="none" stroke="#000000" d="M 420 496 L 480 496" stroke-miterlimit="10"/></g><g transform="translate(-258,-302) scale(1,1)"><path fill="#000000" stroke="none" d="M 469.83732514237585 500.209517756016 L 480 496 L 469.83732514237585 491.790482243984"/></g><g transform="translate(-258,-302) scale(1,1)"><path fill="none" stroke="#000000" d="M 469.83732514237585 500.209517756016 L 480 496 L 469.83732514237585 491.790482243984 L 469.83732514237585 500.209517756016" stroke-miterlimit="10"/></g><g transform="translate(-258,-302) scale(1,1)"><path fill="none" stroke="#000000" d="M 616 496 L 688 496" stroke-miterlimit="10"/></g><g transform="translate(-258,-302) scale(1,1)"><path fill="#000000" stroke="none" d="M 677.8373251423759 500.209517756016 L 688 496 L 677.8373251423758 491.790482243984"/></g><g transform="translate(-258,-302) scale(1,1)"><path fill="none" stroke="#000000" d="M 677.8373251423759 500.209517756016 L 688 496 L 677.8373251423758 491.790482243984 L 677.8373251423759 500.209517756016" stroke-miterlimit="10"/></g></g></svg>