<svg version="1.1" xmlns="http://www.w3.org/2000/svg" xmlns:xlink="http://www.w3.org/1999/xlink" width="589.63525390625" height="272"><defs/><g><text fill="#eeeeee" stroke="none" font-family="Arial" font-size="24px" font-style="normal" font-weight="normal" text-decoration="none" x="0" y="0">UNREGISTERED</text><text fill="#eeeeee" stroke="none" font-family="Arial" font-size="24px" font-style="normal" font-weight="normal" text-decoration="none" x="0" y="30">UNREGISTERED</text><text fill="#eeeeee" stroke="none" font-family="Arial" font-size="24px" font-style="normal" font-weight="normal" text-decoration="none" x="0" y="60">UNREGISTERED</text><text fill="#eeeeee" stroke="none" font-family="Arial" font-size="24px" font-style="normal" font-weight="normal" text-decoration="none" x="0" y="90">UNREGISTERED</text><text fill="#eeeeee" stroke="none" font-family="Arial" font-size="24px" font-style="normal" font-weight="normal" text-decoration="none" x="0" y="120">UNREGISTERED</text><text fill="#eeeeee" stroke="none" font-family="Arial" font-size="24px" font-style="normal" font-weight="normal" text-decoration="none" x="0" y="150">UNREGISTERED</text><text fill="#eeeeee" stroke="none" font-family="Arial" font-size="24px" font-style="normal" font-weight="normal" text-decoration="none" x="0" y="180">UNREGISTERED</text><text fill="#eeeeee" stroke="none" font-family="Arial" font-size="24px" font-style="normal" font-weight="normal" text-decoration="none" x="0" y="210">UNREGISTERED</text><text fill="#eeeeee" stroke="none" font-family="Arial" font-size="24px" font-style="normal" font-weight="normal" text-decoration="none" x="0" y="240">UNREGISTERED</text><text fill="#eeeeee" stroke="none" font-family="Arial" font-size="24px" font-style="normal" font-weight="normal" text-decoration="none" x="0" y="270">UNREGISTERED</text><text fill="#eeeeee" stroke="none" font-family="Arial" font-size="24px" font-style="normal" font-weight="normal" text-decoration="none" x="200" y="0">UNREGISTERED</text><text fill="#eeeeee" stroke="none" font-family="Arial" font-size="24px" font-style="normal" font-weight="normal" text-decoration="none" x="200" y="30">UNREGISTERED</text><text fill="#eeeeee" stroke="none" font-family="Arial" font-size="24px" font-style="normal" font-weight="normal" text-decoration="none" x="200" y="60">UNREGISTERED</text><text fill="#eeeeee" stroke="none" font-family="Arial" font-size="24px" font-style="normal" font-weight="normal" text-decoration="none" x="200" y="90">UNREGISTERED</text><text fill="#eeeeee" stroke="none" font-family="Arial" font-size="24px" font-style="normal" font-weight="normal" text-decoration="none" x="200" y="120">UNREGISTERED</text><text fill="#eeeeee" stroke="none" font-family="Arial" font-size="24px" font-style="normal" font-weight="normal" text-decoration="none" x="200" y="150">UNREGISTERED</text><text fill="#eeeeee" stroke="none" font-family="Arial" font-size="24px" font-style="normal" font-weight="normal" text-decoration="none" x="200" y="180">UNREGISTERED</text><text fill="#eeeeee" stroke="none" font-family="Arial" font-size="24px" font-style="normal" font-weight="normal" text-decoration="none" x="200" y="210">UNREGISTERED</text><text fill="#eeeeee" stroke="none" font-family="Arial" font-size="24px" font-style="normal" font-weight="normal" text-decoration="none" x="200" y="240">UNREGISTERED</text><text fill="#eeeeee" stroke="none" font-family="Arial" font-size="24px" font-style="normal" font-weight="normal" text-decoration="none" x="200" y="270">UNREGISTERED</text><text fill="#eeeeee" stroke="none" font-family="Arial" font-size="24px" font-style="normal" font-weight="normal" text-decoration="none" x="400" y="0">UNREGISTERED</text><text fill="#eeeeee" stroke="none" font-family="Arial" font-size="24px" font-style="normal" font-weight="normal" text-decoration="none" x="400" y="30">UNREGISTERED</text><text fill="#eeeeee" stroke="none" font-family="Arial" font-size="24px" font-style="normal" font-weight="normal" text-decoration="none" x="400" y="60">UNREGISTERED</text><text fill="#eeeeee" stroke="none" font-family="Arial" font-size="24px" font-style="normal" font-weight="normal" text-decoration="none" x="400" y="90">UNREGISTERED</text><text fill="#eeeeee" stroke="none" font-family="Arial" font-size="24px" font-style="normal" font-weight="normal" text-decoration="none" x="400" y="120">UNREGISTERED</text><text fill="#eeeeee" stroke="none" font-family="Arial" font-size="24px" font-style="normal" font-weight="normal" text-decoration="none" x="400" y="150">UNREGISTERED</text><text fill="#eeeeee" stroke="none" font-family="Arial" font-size="24px" font-style="normal" font-weight="normal" text-decoration="none" x="400" y="180">UNREGISTERED</text><text fill="#eeeeee" stroke="none" font-family="Arial" font-size="24px" font-style="normal" font-weight="normal" text-decoration="none" x="400" y="210">UNREGISTERED</text><text fill="#eeeeee" stroke="none" font-family="Arial" font-size="24px" font-style="normal" font-weight="normal" text-decoration="none" x="400" y="240">UNREGISTERED</text><text fill="#eeeeee" stroke="none" font-family="Arial" font-size="24px" font-style="normal" font-weight="normal" text-decoration="none" x="400" y="270">UNREGISTERED</text><g transform="translate(-30,-350) scale(1,1)"><rect fill="#C0C0C0" stroke="none" x="47" y="375" width="128" height="64" opacity="0.2"/></g><g transform="translate(-30,-350) scale(1,1)"><rect fill="#ffffff" stroke="none" x="40" y="368" width="128" height="64"/></g><g transform="translate(-30,-350) scale(1,1)"><path fill="none" stroke="#000000" d="M 40 368 L 168 368 L 168 432 L 40 432 L 40 368 Z Z" stroke-miterlimit="10"/></g><g transform="translate(-30,-350) scale(1,1)"><path fill="none" stroke="#000000" d="M 40 393 L 168 393" stroke-miterlimit="10"/></g><g transform="translate(-30,-350) scale(1,1)"><path fill="none" stroke="#000000" d="M 40 403 L 168 403" stroke-miterlimit="10"/></g><g transform="translate(-30,-350) scale(1,1)"><g><path fill="none" stroke="none"/><text fill="#000000" stroke="none" font-family="Arial" font-size="13px" font-style="italic" font-weight="bold" text-decoration="none" x="71.972900390625" y="385.4306640625">Workforce</text></g></g><g transform="translate(-30,-350) scale(1,1)"><rect fill="#C0C0C0" stroke="none" x="231" y="367" width="132.55078125" height="72" opacity="0.2"/></g><g transform="translate(-30,-350) scale(1,1)"><rect fill="#ffffff" stroke="none" x="224" y="360" width="132.55078125" height="72"/></g><g transform="translate(-30,-350) scale(1,1)"><path fill="none" stroke="#000000" d="M 224 360 L 356.55078125 360 L 356.55078125 432 L 224 432 L 224 360 Z Z" stroke-miterlimit="10"/></g><g transform="translate(-30,-350) scale(1,1)"><path fill="none" stroke="#000000" d="M 224 385 L 356.55078125 385" stroke-miterlimit="10"/></g><g transform="translate(-30,-350) scale(1,1)"><path fill="none" stroke="#000000" d="M 224 395 L 356.55078125 395" stroke-miterlimit="10"/></g><g transform="translate(-30,-350) scale(1,1)"><g><path fill="none" stroke="none"/><text fill="#000000" stroke="none" font-family="Arial" font-size="13px" font-style="italic" font-weight="bold" text-decoration="none" x="228.5" y="377.43701171875">Intermediatary Hirer</text></g></g><g transform="translate(-30,-350) scale(1,1)"><g><path fill="none" stroke="none"/><text fill="#000000" stroke="none" font-family="Arial" font-size="13px" font-style="normal" font-weight="normal" text-decoration="none" x="229" y="410.7099609375">+Classification()</text></g></g><g transform="translate(-30,-350) scale(1,1)"><g><path fill="none" stroke="none"/><text fill="#000000" stroke="none" font-family="Arial" font-size="13px" font-style="normal" font-weight="normal" text-decoration="none" x="229" y="425.7099609375">+Formalization()</text></g></g><g transform="translate(-30,-350) scale(1,1)"><path fill="none" stroke="#000000" d="M 169 399 L 223 397" stroke-miterlimit="10"/></g><g transform="translate(-30,-350) scale(1,1)"><rect fill="#C0C0C0" stroke="none" x="159" y="575" width="50.919921875" height="44" opacity="0.2"/></g><g transform="translate(-30,-350) scale(1,1)"><rect fill="#ffffff" stroke="none" x="152" y="568" width="50.919921875" height="44"/></g><g transform="translate(-30,-350) scale(1,1)"><path fill="none" stroke="#000000" d="M 152 568 L 202.919921875 568 L 202.919921875 612 L 152 612 L 152 568 Z Z" stroke-miterlimit="10"/></g><g transform="translate(-30,-350) scale(1,1)"><path fill="none" stroke="#000000" d="M 152 593 L 202.919921875 593" stroke-miterlimit="10"/></g><g transform="translate(-30,-350) scale(1,1)"><path fill="none" stroke="#000000" d="M 152 603 L 202.919921875 603" stroke-miterlimit="10"/></g><g transform="translate(-30,-350) scale(1,1)"><g><path fill="none" stroke="none"/><text fill="#000000" stroke="none" font-family="Arial" font-size="13px" font-style="normal" font-weight="bold" text-decoration="none" x="156.5" y="585.7099609375">Class1</text></g></g><g transform="translate(-30,-350) scale(1,1)"><path fill="none" stroke="#000000" d="M 190 567 L 268 433" stroke-miterlimit="10"/></g><g transform="translate(-30,-350) scale(1,1)"><path fill="#FFFFFF" stroke="none" d="M 265.05107192661814 454.8014637861319 L 268 433 L 250.4988300791135 446.3307558450471"/></g><g transform="translate(-30,-350) scale(1,1)"><path fill="none" stroke="#000000" d="M 265.05107192661814 454.8014637861319 L 268 433 L 250.4988300791135 446.3307558450471 L 265.05107192661814 454.8014637861319" stroke-miterlimit="10"/></g><g transform="translate(-30,-350) scale(1,1)"><rect fill="#C0C0C0" stroke="none" x="223" y="575" width="50.919921875" height="44" opacity="0.2"/></g><g transform="translate(-30,-350) scale(1,1)"><rect fill="#ffffff" stroke="none" x="216" y="568" width="50.919921875" height="44"/></g><g transform="translate(-30,-350) scale(1,1)"><path fill="none" stroke="#000000" d="M 216 568 L 266.919921875 568 L 266.919921875 612 L 216 612 L 216 568 Z Z" stroke-miterlimit="10"/></g><g transform="translate(-30,-350) scale(1,1)"><path fill="none" stroke="#000000" d="M 216 593 L 266.919921875 593" stroke-miterlimit="10"/></g><g transform="translate(-30,-350) scale(1,1)"><path fill="none" stroke="#000000" d="M 216 603 L 266.919921875 603" stroke-miterlimit="10"/></g><g transform="translate(-30,-350) scale(1,1)"><g><path fill="none" stroke="none"/><text fill="#000000" stroke="none" font-family="Arial" font-size="13px" font-style="normal" font-weight="bold" text-decoration="none" x="220.5" y="585.7099609375">Class2</text></g></g><g transform="translate(-30,-350) scale(1,1)"><path fill="none" stroke="#000000" d="M 247 567 L 281 433" stroke-miterlimit="10"/></g><g transform="translate(-30,-350) scale(1,1)"><path fill="#FFFFFF" stroke="none" d="M 284.16167101440146 454.771629162667 L 281 433 L 267.84077239576357 450.6305056325649"/></g><g transform="translate(-30,-350) scale(1,1)"><path fill="none" stroke="#000000" d="M 284.16167101440146 454.771629162667 L 281 433 L 267.84077239576357 450.6305056325649 L 284.16167101440146 454.771629162667" stroke-miterlimit="10"/></g><g transform="translate(-30,-350) scale(1,1)"><rect fill="#C0C0C0" stroke="none" x="287" y="575" width="50.919921875" height="44" opacity="0.2"/></g><g transform="translate(-30,-350) scale(1,1)"><rect fill="#ffffff" stroke="none" x="280" y="568" width="50.919921875" height="44"/></g><g transform="translate(-30,-350) scale(1,1)"><path fill="none" stroke="#000000" d="M 280 568 L 330.919921875 568 L 330.919921875 612 L 280 612 L 280 568 Z Z" stroke-miterlimit="10"/></g><g transform="translate(-30,-350) scale(1,1)"><path fill="none" stroke="#000000" d="M 280 593 L 330.919921875 593" stroke-miterlimit="10"/></g><g transform="translate(-30,-350) scale(1,1)"><path fill="none" stroke="#000000" d="M 280 603 L 330.919921875 603" stroke-miterlimit="10"/></g><g transform="translate(-30,-350) scale(1,1)"><g><path fill="none" stroke="none"/><text fill="#000000" stroke="none" font-family="Arial" font-size="13px" font-style="normal" font-weight="bold" text-decoration="none" x="284.5" y="585.7099609375">Class3</text></g></g><g transform="translate(-30,-350) scale(1,1)"><path fill="none" stroke="#000000" d="M 303 567 L 293 433" stroke-miterlimit="10"/></g><g transform="translate(-30,-350) scale(1,1)"><path fill="#FFFFFF" stroke="none" d="M 302.90830046212056 452.64244338040305 L 293 433 L 286.1169215334434 453.89553136015513"/></g><g transform="translate(-30,-350) scale(1,1)"><path fill="none" stroke="#000000" d="M 302.90830046212056 452.64244338040305 L 293 433 L 286.1169215334434 453.89553136015513 L 302.90830046212056 452.64244338040305" stroke-miterlimit="10"/></g><g transform="translate(-30,-350) scale(1,1)"><rect fill="#C0C0C0" stroke="none" x="351" y="575" width="50.919921875" height="44" opacity="0.2"/></g><g transform="translate(-30,-350) scale(1,1)"><rect fill="#ffffff" stroke="none" x="344" y="568" width="50.919921875" height="44"/></g><g transform="translate(-30,-350) scale(1,1)"><path fill="none" stroke="#000000" d="M 344 568 L 394.919921875 568 L 394.919921875 612 L 344 612 L 344 568 Z Z" stroke-miterlimit="10"/></g><g transform="translate(-30,-350) scale(1,1)"><path fill="none" stroke="#000000" d="M 344 593 L 394.919921875 593" stroke-miterlimit="10"/></g><g transform="translate(-30,-350) scale(1,1)"><path fill="none" stroke="#000000" d="M 344 603 L 394.919921875 603" stroke-miterlimit="10"/></g><g transform="translate(-30,-350) scale(1,1)"><g><path fill="none" stroke="none"/><text fill="#000000" stroke="none" font-family="Arial" font-size="13px" font-style="normal" font-weight="bold" text-decoration="none" x="348.5" y="585.7099609375">Class4</text></g></g><g transform="translate(-30,-350) scale(1,1)"><path fill="none" stroke="#000000" d="M 360 567 L 305 433" stroke-miterlimit="10"/></g><g transform="translate(-30,-350) scale(1,1)"><path fill="#FFFFFF" stroke="none" d="M 320.50619924024653 448.60633797922424 L 305 433 L 304.9291912186094 454.9998860478066"/></g><g transform="translate(-30,-350) scale(1,1)"><path fill="none" stroke="#000000" d="M 320.50619924024653 448.60633797922424 L 305 433 L 304.9291912186094 454.9998860478066 L 320.50619924024653 448.60633797922424" stroke-miterlimit="10"/></g><g transform="translate(-30,-350) scale(1,1)"><rect fill="#C0C0C0" stroke="none" x="415" y="575" width="50.919921875" height="44" opacity="0.2"/></g><g transform="translate(-30,-350) scale(1,1)"><rect fill="#ffffff" stroke="none" x="408" y="568" width="50.919921875" height="44"/></g><g transform="translate(-30,-350) scale(1,1)"><path fill="none" stroke="#000000" d="M 408 568 L 458.919921875 568 L 458.919921875 612 L 408 612 L 408 568 Z Z" stroke-miterlimit="10"/></g><g transform="translate(-30,-350) scale(1,1)"><path fill="none" stroke="#000000" d="M 408 593 L 458.919921875 593" stroke-miterlimit="10"/></g><g transform="translate(-30,-350) scale(1,1)"><path fill="none" stroke="#000000" d="M 408 603 L 458.919921875 603" stroke-miterlimit="10"/></g><g transform="translate(-30,-350) scale(1,1)"><g><path fill="none" stroke="none"/><text fill="#000000" stroke="none" font-family="Arial" font-size="13px" font-style="normal" font-weight="bold" text-decoration="none" x="412.5" y="585.7099609375">Class5</text></g></g><g transform="translate(-30,-350) scale(1,1)"><path fill="none" stroke="#000000" d="M 416 567 L 317 433" stroke-miterlimit="10"/></g><g transform="translate(-30,-350) scale(1,1)"><path fill="#FFFFFF" stroke="none" d="M 335.8492132070402 444.34491786993374 L 317 433 L 322.30633812089457 454.35047483656376"/></g><g transform="translate(-30,-350) scale(1,1)"><path fill="none" stroke="#000000" d="M 335.8492132070402 444.34491786993374 L 317 433 L 322.30633812089457 454.35047483656376 L 335.8492132070402 444.34491786993374" stroke-miterlimit="10"/></g><g transform="translate(-30,-350) scale(1,1)"><rect fill="#C0C0C0" stroke="none" x="433.55078125" y="367" width="183.08447265625" height="44" opacity="0.2"/></g><g transform="translate(-30,-350) scale(1,1)"><rect fill="#ffffff" stroke="none" x="426.55078125" y="360" width="183.08447265625" height="44"/></g><g transform="translate(-30,-350) scale(1,1)"><path fill="none" stroke="#000000" d="M 426.55078125 360 L 609.63525390625 360 L 609.63525390625 404 L 426.55078125 404 L 426.55078125 360 Z Z" stroke-miterlimit="10"/></g><g transform="translate(-30,-350) scale(1,1)"><path fill="none" stroke="#000000" d="M 426.55078125 385 L 609.63525390625 385" stroke-miterlimit="10"/></g><g transform="translate(-30,-350) scale(1,1)"><path fill="none" stroke="#000000" d="M 426.55078125 395 L 609.63525390625 395" stroke-miterlimit="10"/></g><g transform="translate(-30,-350) scale(1,1)"><g><path fill="none" stroke="none"/><text fill="#000000" stroke="none" font-family="Arial" font-size="13px" font-style="italic" font-weight="bold" text-decoration="none" x="431.05078125" y="377.43701171875">Companies and Contractors</text></g></g><g transform="translate(-30,-350) scale(1,1)"><path fill="none" stroke="#000000" d="M 358 392 L 426 388" stroke-miterlimit="10"/></g></g></svg>